Coordinates
version=1
nRows=13
nColumns=26
inDegrees=yes

Units are S.I. units (second, meters, Newtons, ...)
Angles are in degrees.

endheader
time	pelvis_tilt	pelvis_list	pelvis_rotation	pelvis_tx	pelvis_ty	pelvis_tz	hip_flexion_r	hip_adduction_r	hip_rotation_r	knee_angle_r	knee_angle_r_beta	ankle_angle_r	subtalar_angle_r	mtp_angle_r	hip_flexion_l	hip_adduction_l	hip_rotation_l	knee_angle_l	knee_angle_l_beta	ankle_angle_l	subtalar_angle_l	mtp_angle_l	lumbar_extension	lumbar_bending	lumbar_rotation
      0.54166667	      3.56108390	      2.73109389	      4.42006460	      0.54885554	      0.99018068	      0.15321587	     18.94052146	     -4.73224240	     -6.49247234	      7.27442615	      7.27442615	     -2.49865394	      0.00000000	      0.00000000	    -13.74338814	      2.72391004	     -5.41177298	     11.70139644	     11.70139644	     15.79461866	      0.00000000	      0.00000000	    -16.84279017	     -0.91515815	     -1.99139647
      0.55000000	      3.87298007	      2.51722480	      4.75201690	      0.55911580	      0.98935378	      0.15340829	     18.54740672	     -4.59947054	     -6.85838424	      8.28518575	      8.28518575	     -3.23593438	      0.00000000	      0.00000000	    -14.41603951	      2.27068576	     -5.45047365	     12.24910153	     12.24910153	     16.04574455	      0.00000000	      0.00000000	    -17.00747792	     -0.36476307	     -2.18117318
      0.55833333	      4.28653186	      2.31781078	      5.15856110	      0.56961518	      0.98880377	      0.15360071	     17.95871813	     -4.44293144	     -7.46028230	      9.23950663	      9.23950663	     -4.01489418	      0.00000000	      0.00000000	    -15.13080537	      1.75475034	     -5.42861871	     12.97220742	     12.97220742	     16.26385197	      0.00000000	      0.00000000	    -17.26004380	      0.18241896	     -2.44433137
      0.56666667	      4.73752742	      2.11523963	      5.53737544	      0.58018345	      0.98848545	      0.15381970	     17.14814122	     -4.26024322	     -7.97874015	      9.73720682	      9.73720682	     -4.92196731	      0.00000000	      0.00000000	    -15.88207918	      1.24542408	     -5.47539240	     13.64988366	     13.64988366	     16.30064258	      0.00000000	      0.00000000	    -17.54237254	      0.72920777	     -2.61388226
      0.57500000	      5.20387201	      1.96667454	      5.91755092	      0.59088677	      0.98837621	      0.15412042	     16.16382498	     -4.12121273	     -8.44596771	      9.88943804	      9.88943804	     -5.82484423	      0.00000000	      0.00000000	    -16.54547572	      0.76276121	     -5.49208589	     14.48574648	     14.48574648	     16.21074927	      0.00000000	      0.00000000	    -17.82292516	      1.21379299	     -2.75536035
      0.58333333	      5.63108098	      1.89013418	      6.26659302	      0.60156651	      0.98827513	      0.15473151	     15.23185542	     -4.01127813	     -9.04272080	     10.10286374	     10.10286374	     -7.26326189	      0.00000000	      0.00000000	    -17.10400856	      0.31598555	     -5.52223946	     15.46630459	     15.46630459	     16.08472715	      0.00000000	      0.00000000	    -18.06138825	      1.57227619	     -2.82353297
      0.59166667	      5.85977647	      1.88176589	      6.38488872	      0.61216377	      0.98804678	      0.15556140	     14.44574000	     -3.98562298	     -8.97627498	      9.98266094	      9.98266094	     -6.75540755	      0.00000000	      0.00000000	    -17.39276297	      0.03505914	     -5.68499281	     16.56726052	     16.56726052	     15.84173779	      0.00000000	      0.00000000	    -18.10004840	      1.78073542	     -2.62754584
      0.60000000	      6.02842743	      1.94779630	      6.45414120	      0.62225723	      0.98784071	      0.15677592	     13.91154369	     -3.97106349	     -9.15476126	     10.34208996	     10.34208996	     -6.90731593	      0.00000000	      0.00000000	    -17.40934513	     -0.17764904	     -5.75696216	     18.03402362	     18.03402362	     15.63341964	      0.00000000	      0.00000000	    -18.14655709	      1.84627196	     -2.39460345
      0.60833333	      6.06598825	      1.88456794	      6.45927738	      0.63191518	      0.98771178	      0.15811588	     13.67023691	     -3.81079795	     -9.30848569	     11.02008713	     11.02008713	     -6.93437867	      0.00000000	      0.00000000	    -16.89900315	     -0.55853918	     -5.92935503	     20.12117689	     20.12117689	     15.42066383	      0.00000000	      0.00000000	    -18.09103542	      2.02424961	     -2.02003869
      0.61666667	      6.15569063	      1.64164357	      6.46154692	      0.64141952	      0.98819394	      0.15951112	     13.46639041	     -3.44442866	     -9.42430230	     11.89187726	     11.89187726	     -6.44036728	      0.00000000	      0.00000000	    -16.18304781	     -1.18317359	     -6.17513672	     22.58910125	     22.58910125	     15.01558822	      0.00000000	      0.00000000	    -18.11245766	      2.39845070	     -1.58393263
      0.62500000	      6.46094326	      1.18485447	      6.56946804	      0.65092100	      0.98947581	      0.16100992	     13.00834737	     -2.84186755	     -9.69496953	     12.83203909	     12.83203909	     -5.63964099	      0.00000000	      0.00000000	    -15.43629285	     -2.16373332	     -6.36811807	     25.41784302	     25.41784302	     14.24474827	      0.00000000	      0.00000000	    -18.36950311	      3.03792100	     -1.18311214
      0.63333333	      6.64653789	      0.76927306	      6.65410544	      0.66020488	      0.99065820	      0.16248154	     12.72001427	     -2.28499940	     -9.88948138	     13.77483544	     13.77483544	     -4.86820616	      0.00000000	      0.00000000	    -14.21942360	     -3.17290075	     -6.54829184	     28.79158097	     28.79158097	     13.28856228	      0.00000000	      0.00000000	    -18.52744517	      3.60541909	     -0.79858311
      0.64166667	      6.92552013	      0.28435527	      6.74285135	      0.66949685	      0.99198061	      0.16404769	     12.23933453	     -1.63240750	    -10.08056750	     14.57064385	     14.57064385	     -4.08223225	      0.00000000	      0.00000000	    -13.00317528	     -4.25634670	     -6.62258286	     32.24692325	     32.24692325	     12.13038410	      0.00000000	      0.00000000	    -18.78573901	      4.22630972	     -0.40123579
